<svg xmlns="http://www.w3.org/2000/svg" viewBox="0 0 640 640" fill="none" aria-hidden="true">
  <defs>
    <radialGradient id="glow" cx="50%" cy="50%" r="50%">
      <stop offset="0%" stop-color="#DDFC79" stop-opacity="0.4"/>
      <stop offset="100%" stop-color="#DDFC79" stop-opacity="0"/>
    </radialGradient>
    <linearGradient id="line" x1="0" y1="0" x2="1" y2="1">
      <stop offset="0%" stop-color="#0F0450" stop-opacity="0.5"/>
      <stop offset="100%" stop-color="#0A5245" stop-opacity="0.5"/>
    </linearGradient>
  </defs>
  <circle cx="320" cy="320" r="180" fill="url(#glow)"/>
  <g stroke="url(#line)" stroke-width="1.5">
    <line x1="320" y1="320" x2="140" y2="160"/>
    <line x1="320" y1="320" x2="500" y2="150"/>
    <line x1="320" y1="320" x2="520" y2="360"/>
    <line x1="320" y1="320" x2="480" y2="500"/>
    <line x1="320" y1="320" x2="180" y2="490"/>
    <line x1="320" y1="320" x2="120" y2="340"/>
    <line x1="140" y1="160" x2="500" y2="150"/>
    <line x1="500" y1="150" x2="520" y2="360"/>
    <line x1="180" y1="490" x2="480" y2="500"/>
  </g>
  <circle cx="320" cy="320" r="28" fill="#0A5245"/>
  <path d="M312 320h16M320 312v16" stroke="#FFFCF1" stroke-width="3" stroke-linecap="round"/>
  <circle cx="140" cy="160" r="10" fill="#0F0450"/>
  <circle cx="500" cy="150" r="8" fill="#DDFC79"/>
  <circle cx="520" cy="360" r="9" fill="#FFB899"/>
  <circle cx="480" cy="500" r="8" fill="#FF4D00"/>
  <circle cx="180" cy="490" r="9" fill="#0A5245"/>
  <circle cx="120" cy="340" r="7" fill="#0F0450"/>
  <circle cx="320" cy="320" r="28" stroke="#DDFC79" stroke-opacity="0.6" stroke-width="2"/>
</svg>
